<svg xmlns="http://www.w3.org/2000/svg" width="120" height="120" viewBox="0 0 120 120">
  <g id="Group_8650" data-name="Group 8650" transform="translate(-234 -1950)">
    <circle id="Ellipse_384" data-name="Ellipse 384" cx="60" cy="60" r="60" transform="translate(234 1950)" fill="#fff" opacity="0"/>
    <g id="Group_17949" data-name="Group 17949" transform="translate(0 3.711)">
      <g id="Group_17947" data-name="Group 17947" transform="translate(0.205 14.296)">
        <path id="Path_23752" data-name="Path 23752" d="M278.183,346.725a103.749,103.749,0,0,1-10.092,2.455c-1.455,2.364-4.183,4.183-8.365,4.91a18.685,18.685,0,0,1-3.273.182,88.2,88.2,0,0,1-10-.818c-.273,0-.545-.091-.909-.091a1.8,1.8,0,0,1-1.636-1.91,1.843,1.843,0,0,1,2-1.728c.273,0,.545.091.91.091,4.91.455,9.456,1,12.365.545,5.364-.818,7-4.091,6.637-6.819-.182-2.182-1.818-4.455-4.455-4.273A97.921,97.921,0,0,1,249,338.632c-4.91-.455-9.91-1-13.548-.455a46.546,46.546,0,0,0-9,3c-.818.363-1.636.728-2.455,1v23.64c7.274,2.546,16.184,5.364,21.367,5.819,10.638.818,31.369-11.183,37.369-15.093,6-3.818,2-12.092-4.545-9.819Z" transform="translate(49.531 1663.486)" fill="#1a7dff"/>
        <path id="Path_23753" data-name="Path 23753" d="M110.959,338.24H98.775A2.445,2.445,0,0,0,96.32,340.7v26.913a2.445,2.445,0,0,0,2.455,2.455H111.05a2.445,2.445,0,0,0,2.455-2.455V340.7a2.585,2.585,0,0,0-2.546-2.455Z" transform="translate(156.475 1663.242)" fill="#1a7dff"/>
      </g>
      <g id="noun-loan-4301104" transform="translate(157.25 1919.539)">
        <path id="Path_24057" data-name="Path 24057" d="M282.3,43.75h-24.22a4.324,4.324,0,0,0-4.325,4.325V64.623A13.825,13.825,0,0,1,264,71.439a.665.665,0,0,1,.13-.008h12.11a.865.865,0,1,1,0,1.73H264.848a13.824,13.824,0,0,1-6.142,17.3H272.78a.924.924,0,0,0,.571-.208l12.975-11.245a.806.806,0,0,0,.182-.242.789.789,0,0,0,.112-.415V48.075A4.324,4.324,0,0,0,282.3,43.75ZM264.13,50.67h7.309a.865.865,0,0,1,0,1.73H264.13a.865.865,0,1,1,0-1.73Zm0,5.19h12.11a.865.865,0,0,1,0,1.73H264.13a.865.865,0,1,1,0-1.73Zm0,5.19h12.11a.865.865,0,0,1,0,1.73H264.13a.865.865,0,1,1,0-1.73Zm12.11,6.92H264.13a.865.865,0,1,1,0-1.73h12.11a.865.865,0,0,1,0,1.73Zm-2.6,19.731V80.081a.865.865,0,0,1,.865-.865h8.927Z" transform="translate(-126.16)" fill="#ed4527"/>
        <path id="Path_24058" data-name="Path 24058" d="M176.473,344.194a10.545,10.545,0,0,0,2.555-.319,10.228,10.228,0,0,0,0-19.8,10.542,10.542,0,0,0-2.555-.319,10.222,10.222,0,0,0,0,20.444Z" transform="translate(-50.612 -255.622)" fill="#ed4527"/>
        <path id="Path_24059" data-name="Path 24059" d="M125.86,295.473a11.71,11.71,0,0,0,2.068-.181,12.11,12.11,0,0,0-.338-23.917,12.641,12.641,0,0,0-1.73-.121,12.11,12.11,0,1,0,0,24.22Zm0-20.76a8.692,8.692,0,1,1-6.1,2.546A8.65,8.65,0,0,1,125.86,274.712Z" transform="translate(0 -205.012)" fill="#ed4527"/>
        <g id="Group_17948" data-name="Group 17948" transform="translate(121.073 71.411)">
          <path id="Path_4504" data-name="Path 4504" d="M358.9,355.48h-2.579a1.024,1.024,0,1,1,0-2.047H358.9a2.143,2.143,0,1,0,0-4.285h-1.842a1.024,1.024,0,0,1,0-2.047H358.9a4.19,4.19,0,1,1,0,8.38Z" transform="translate(-355.255 -347.1)" fill="#fff"/>
          <path id="Path_4505" data-name="Path 4505" d="M363.52,349.247h-7.465a1.024,1.024,0,1,1,0-2.047h7.465a1.024,1.024,0,1,1,0,2.047Zm0,3.112h-7.465a1.024,1.024,0,0,1,0-2.047h7.465a1.024,1.024,0,1,1,0,2.047Zm-1.856,8.707a1.063,1.063,0,0,1-.71-.287l-5.664-5.5a1.023,1.023,0,0,1,1.406-1.488l.014.014,5.664,5.5a1.03,1.03,0,0,1,.027,1.447A1.012,1.012,0,0,1,361.663,361.066Z" transform="translate(-354.972 -347.186)" fill="#fff"/>
        </g>
      </g>
    </g>
  </g>
</svg>
